<svg width="2242" height="409" xmlns="http://www.w3.org/2000/svg" xmlns:xlink="http://www.w3.org/1999/xlink" overflow="hidden"><defs><clipPath id="clip0"><rect x="1079" y="1738" width="2242" height="409"/></clipPath></defs><g clip-path="url(#clip0)" transform="translate(-1079 -1738)"><path d="M1628.54 1886.26 1754.05 1886.26 1754.05 2147 1628.54 2147ZM1204.5 1831.49 1204.5 1910.59 1246.44 1910.59C1283.38 1910.59 1301.85 1897.01 1301.85 1869.84 1301.85 1844.27 1284.78 1831.49 1250.63 1831.49ZM3034.35 1738 3159.85 1738 3159.85 2046.62 3321 2046.62 3321 2147 3034.35 2147ZM2523.15 1738 2830.77 1738 2830.77 1832.38 2646.25 1832.38 2646.25 1863.71 2646.17 1863.71 2646.17 2042.69 2646.25 2042.69 2646.25 2049.32 2830.77 2049.32 2830.77 2147 2523.15 2147ZM1935.19 1738 2081.58 1738 2145.01 1848.07 2210.85 1738 2323.53 1738 2204.69 1927.71 2342.4 2147 2196.36 2147 2120.87 2018.2 2044.65 2147 1929.8 2147 2061.5 1935.81ZM1079 1738 1253.63 1738C1297.16 1738 1330.26 1742.99 1352.92 1752.98 1375.59 1762.97 1393.56 1778.25 1406.84 1798.83 1420.12 1819.4 1426.76 1842.47 1426.76 1868.04 1426.76 1906.99 1413.18 1938.45 1386.02 1962.43 1358.86 1986.4 1322.62 1998.38 1277.29 1998.38L1206.3 1998.38 1206.3 2147 1079 2147Z" fill="#FFFFFF" fill-rule="evenodd"/><rect x="1652" y="1738" width="74.9999" height="74.9999" fill="#FFFFFF"/><rect x="2701" y="1905" width="75.0002" height="74.9999" fill="#FFFFFF"/></g></svg>