<svg width="2242" height="409" xmlns="http://www.w3.org/2000/svg" xmlns:xlink="http://www.w3.org/1999/xlink" overflow="hidden"><defs><clipPath id="clip0"><rect x="1079" y="775" width="2242" height="409"/></clipPath></defs><g clip-path="url(#clip0)" transform="translate(-1079 -775)"><path d="M1628.54 923.259 1754.05 923.259 1754.05 1184 1628.54 1184ZM1204.5 868.486 1204.5 947.589 1246.44 947.589C1283.38 947.589 1301.85 934.005 1301.85 906.839 1301.85 881.27 1284.78 868.486 1250.63 868.486ZM3034.35 775 3159.85 775 3159.85 1083.62 3321 1083.62 3321 1184 3034.35 1184ZM2523.15 775 2830.77 775 2830.77 869.385 2646.25 869.385 2646.25 900.712 2646.17 900.712 2646.17 1079.69 2646.25 1079.69 2646.25 1086.32 2830.77 1086.32 2830.77 1184 2523.15 1184ZM1935.19 775 2081.58 775 2145.01 885.069 2210.85 775 2323.53 775 2204.69 964.715 2342.4 1184 2196.36 1184 2120.87 1055.2 2044.65 1184 1929.8 1184 2061.5 972.81ZM1079 775 1253.63 775C1297.16 775 1330.26 779.994 1352.92 789.982 1375.59 799.97 1393.56 815.251 1406.84 835.826 1420.12 856.401 1426.76 879.472 1426.76 905.041 1426.76 943.993 1413.18 975.455 1386.02 999.426 1358.86 1023.4 1322.62 1035.38 1277.29 1035.38L1206.3 1035.38 1206.3 1184 1079 1184Z" fill="#CF6679" fill-rule="evenodd"/><rect x="1652" y="775" width="74.9999" height="74.9999" fill="#FFFFFF"/><rect x="2701" y="942" width="75.0002" height="75.0003" fill="#FFFFFF"/></g></svg>