<svg width="807" height="230" xmlns="http://www.w3.org/2000/svg" xmlns:xlink="http://www.w3.org/1999/xlink" overflow="hidden"><defs><clipPath id="clip0"><rect x="1796" y="1124" width="807" height="230"/></clipPath></defs><g clip-path="url(#clip0)" transform="translate(-1796 -1124)"><path d="M61.7421 142.618 206.903-0.312191 88.4298 144.564C115.77 156.261 114.649 167.016 116.379 174.982 121.244 197.329 77.3649 203.688 77.3649 203.688L-0.0971617 203.688-0.0971617 198.487C-0.0971617 198.487 11.6197 197.516 11.6197 194.266 11.6197 191.02 11.6197 108.834 11.6197 102.337 11.6197 95.8399-0.0971617 95.8399-0.0971617 95.8399L-0.0971617 92.5918 44.167 92.5918 44.167 95.8399C44.167 95.8399 32.4502 97.4636 32.4502 100.062 32.4502 102.662 32.4502 142.618 32.4502 142.618ZM32.4502 195.891 74.7614 195.891C74.7614 195.891 97.5435 194.591 93.6372 175.101 94.2895 149.114 61.0916 153.015 61.0916 153.015L32.4502 153.015 32.4502 195.891" fill="#BF2D2B" fill-rule="evenodd" transform="matrix(1 0 0 -1 1797 1328)"/><path d="M27.8031 91.9801 24.5585 95.2509 24.5585 99.1712 93.35 99.1712C93.35 99.1712 101.788 91.9801 106.33 88.7094 142.672 108.325 186.155 97.8676 186.155 97.8676L186.155 90.0225C186.155 90.0225 119.309 104.4 121.907 78.9068 120.606 67.1414 150.459 59.9503 150.459 59.9503 150.459 59.9503 195.889 49.4889 195.889 33.1492 195.889 16.8048 195.889 9.61624 195.889 9.61624L217.954 9.61624C217.954 9.61624 217.954 88.3826 217.954 91.0037 217.954 93.6157 208.868 94.5969 208.868 94.5969L208.868 99.1712 247.159 99.1712 247.159 95.2509C247.159 95.2509 236.774 93.9425 236.774 89.3682 236.774 84.7895 236.774 17.1319 236.774 11.2485 236.774 5.36581 247.808 6.34662 247.808 6.34662L247.808 2.42555 191.346 2.42555C191.346 2.42555 188.75 3.07846 182.909 7.6528 168.633-2.15024 134.885-0.18753 134.885-0.18753L134.885 6.34662C134.885 6.34662 175.77 1.77228 176.42 23.9958 177.718 35.7612 144.943 46.8769 144.943 46.8769 144.943 46.8769 95.2971 54.722 102.436 83.4858 40.1349 114.861 26.8312 57.988 26.8312 57.988L98.5435 57.988 98.5435 52.1053C98.5435 52.1053 33.9681 52.1053 26.8312 52.1053 39.1612-22.4158 108.926 21.3795 108.926 21.3795L113.146 17.1319C113.146 17.1319 93.9197 2.83217 67.7162 0.462476 41.5141-1.90758 8.3361 7.6528-0.10119 51.4513-2.04865 76.9444 27.8031 91.9801 27.8031 91.9801" fill="#BF2D2B" fill-rule="evenodd" transform="matrix(1 0 0 -1 1917 1239)"/><path d="M39.5545 96.6526-0.320991 96.6526-0.320991-0.344826 48.7025-0.344826C48.7025-0.344826 91.1909-0.344826 90.5369 48.7992 93.8074 97.9465 39.5545 96.6526 39.5545 96.6526ZM71.5821 39.1021C71.5821 39.1021 76.1562 7.41502 48.7025 7.41502 21.25 7.41502 16.6759 7.41502 16.6759 7.41502L16.6759 40.3964 10.1386 40.3964 10.1386 86.3082C10.1386 86.3082 9.15967 87.9257 11.1194 90.1859 13.0805 92.4508 15.3677 91.4802 15.3677 91.4802L36.284 91.4802C36.284 91.4802 80.7349 91.4802 80.0806 48.7992 76.8101 44.9215 71.5821 39.1021 71.5821 39.1021" fill="#BF2D2B" fill-rule="evenodd" transform="matrix(1 0 0 -1 2181 1236)"/><path d="M204.08 97.0626 204.08 20.6502 144.835 99.6547 109.354 99.6547 107.726 97.7105 22.4453 97.7105 22.4453 93.8274 27.0008 90.5874C27.0008 90.5874-2.61714 75.6927-0.341728 54.0033 0.594231 6.1867 41.085-3.16485 72.2444 0.306137 94.6691 2.80518 110.519 12.8035 111.887 15.6353L106.597 20.3082C102.307 16.3974 87.3335 8.19203 69.8862 7.01384 50.109 5.67862 27.1659 13.3669 20.8169 50.4393 25.3767 50.4393 97.6373 50.4393 97.6373 50.4393L97.6373 56.9149C97.6373 56.9149 26.0237 56.9149 21.794 56.9149 23.4224 81.8485 54.0175 91.2352 54.0175 91.2352L124.98 91.2352 124.98 3.81593C124.98 3.81593 126.934 1.22742 130.187 1.22742 133.439 1.22742 136.05 4.4645 136.05 4.4645L136.05 80.8765 206.351 3.1688C206.351 3.1688 205.374 2.19721 209.613 2.19721 213.838 2.19721 213.512 4.4645 213.512 4.4645L213.512 89.9392 255.829 89.9392C255.829 89.9392 255.829 13.5286 255.829 10.2919 255.829 7.053 245.741 5.75875 245.741 5.75875L245.741 2.19721 284.8 2.19721 284.8 5.11162C284.8 5.11162 274.712 7.37747 274.712 10.6145 274.712 13.8531 274.712 90.2633 274.712 90.2633L312.147 90.2633C312.147 90.2633 319.63 87.3475 323.534 63.7142L323.534 97.0626 204.08 97.0626" fill="#BF2D2B" fill-rule="evenodd" transform="matrix(1 0 0 -1 2279 1238)"/><path d="M102.27 107.753 27.5737 107.753 27.5737 103.847 31.9674 99.4564C31.9674 99.4564-0.25682 89.2052-0.25682 57.4774-0.25682 16.966 38.3128-0.608857 69.0709-0.241593 99.8297 0.123866 122.777 18.4279 122.777 18.4279L119.358 23.3117C119.358 23.3117 97.6328 9.15489 73.9541 8.66592 50.2757 8.1784 24.6439 21.3569 24.6439 56.4995 33.9205 56.4995 107.641 56.4995 107.641 56.4995L107.641 63.3356C107.641 63.3356 35.3848 63.3356 24.6439 63.3356 24.6439 84.0653 49.9138 100.585 72.0046 102.196 82.8044 102.984 93.7888 101.078 101.095 98.0015 108.404 94.92 112.035 90.6706 112.035 90.6706L118.871 90.6706 166.228 2.32204 178.435 2.32204 227.744 99.4564 214.073 99.4564 175.993 23.3117 137.423 99.4564 110.083 99.4564 102.27 107.753" fill="#BF2D2B" fill-rule="evenodd" transform="matrix(1 0 0 -1 2020 1353)"/><path d="M148.612 32.3945C147.787 29.6865 145.312 22.033 142.428 17.6726 141.534 11.1349 135.937 6.08952 129.148 6.08952 127.919 6.08952 126.736 6.26979 125.604 6.57769L78.1575 6.57769 78.1575 95.7562 0.0978206 95.7562-0.388034 92.8336C-0.388034 92.8336 9.8575 91.8587 9.8575 88.448 9.8575 85.0352 9.8575 13.8876 9.8575 9.01602 9.8575 4.14152 0.0978206 4.14152 0.0978206 4.14152L0.0978206 0.242283 38.1558 0.242283 38.1558 3.65551C38.1558 3.65551 27.424 4.62969 27.424 9.9902 27.424 15.3511 27.424 89.4208 27.424 89.4208L61.0859 89.4208C61.0859 89.4208 61.0859 16.8105 61.0859 10.9633 61.0859 5.11642 49.8639 3.65551 49.8639 3.65551L49.8639-0.243725 146.952-0.243725C146.952-0.243725 146.045 22.89 148.612 32.3945" fill="#BF2D2B" fill-rule="evenodd" transform="matrix(1 0 0 -1 2253 1351)"/></g></svg>