<svg width="249" height="284" xmlns="http://www.w3.org/2000/svg" xmlns:xlink="http://www.w3.org/1999/xlink" overflow="hidden"><defs><clipPath id="clip0"><rect x="-779" y="4453" width="249" height="284"/></clipPath></defs><g clip-path="url(#clip0)" transform="translate(779 -4453)"><path d="M-733.34 4712.56-575.66 4712.56-577.356 4720.93C-581.365 4730.37-590.75 4737-601.688 4737L-707.313 4737C-718.25 4737-727.635 4730.37-731.644 4720.93ZM-737.499 4453-571.501 4453C-548.581 4453-530 4471.52-530 4494.36L-530 4659.79C-530 4682.63-548.581 4701.15-571.501 4701.15L-737.499 4701.15C-760.419 4701.15-779 4682.63-779 4659.79L-779 4494.36C-779 4471.52-760.419 4453-737.499 4453Z" fill-rule="evenodd"/></g></svg>