<svg width="249" height="285" xmlns="http://www.w3.org/2000/svg" xmlns:xlink="http://www.w3.org/1999/xlink" overflow="hidden"><defs><clipPath id="clip0"><rect x="-780" y="4076" width="249" height="285"/></clipPath></defs><g clip-path="url(#clip0)" transform="translate(780 -4076)"><path d="M-734.34 4336.47-576.66 4336.47-578.356 4344.87C-582.365 4354.35-591.75 4361-602.688 4361L-708.313 4361C-719.25 4361-728.635 4354.35-732.644 4344.87ZM-738.499 4076-572.501 4076C-549.581 4076-531 4094.58-531 4117.5L-531 4283.52C-531 4306.44-549.581 4325.02-572.501 4325.02L-738.499 4325.02C-761.419 4325.02-780 4306.44-780 4283.52L-780 4117.5C-780 4094.58-761.419 4076-738.499 4076Z" fill="#E59E1A" fill-rule="evenodd"/></g></svg>