<svg width="248" height="285" xmlns="http://www.w3.org/2000/svg" xmlns:xlink="http://www.w3.org/1999/xlink" overflow="hidden"><defs><clipPath id="clip0"><rect x="-779" y="3740" width="248" height="285"/></clipPath></defs><g clip-path="url(#clip0)" transform="translate(779 -3740)"><path d="M-733.523 4000.47-576.477 4000.47-578.166 4008.87C-582.159 4018.35-591.506 4025-602.4 4025L-707.601 4025C-718.494 4025-727.842 4018.35-731.834 4008.87ZM-737.666 3740-572.334 3740C-549.506 3740-531 3758.58-531 3781.5L-531 3947.52C-531 3970.44-549.506 3989.02-572.334 3989.02L-737.666 3989.02C-760.494 3989.02-779 3970.44-779 3947.52L-779 3781.5C-779 3758.58-760.494 3740-737.666 3740Z" fill="#03DAC6" fill-rule="evenodd"/></g></svg>