<svg width="248" height="285" xmlns="http://www.w3.org/2000/svg" xmlns:xlink="http://www.w3.org/1999/xlink" overflow="hidden"><defs><clipPath id="clip0"><rect x="-779" y="3241" width="248" height="285"/></clipPath></defs><g clip-path="url(#clip0)" transform="translate(779 -3241)"><path d="M-733.523 3501.47-576.477 3501.47-578.166 3509.87C-582.159 3519.35-591.506 3526-602.4 3526L-707.601 3526C-718.494 3526-727.842 3519.35-731.834 3509.87ZM-737.666 3241-572.334 3241C-549.506 3241-531 3259.58-531 3282.5L-531 3448.52C-531 3471.44-549.506 3490.02-572.334 3490.02L-737.666 3490.02C-760.494 3490.02-779 3471.44-779 3448.52L-779 3282.5C-779 3259.58-760.494 3241-737.666 3241Z" fill="#CF6679" fill-rule="evenodd"/></g></svg>