<svg width="8555" height="499" xmlns="http://www.w3.org/2000/svg" xmlns:xlink="http://www.w3.org/1999/xlink" overflow="hidden"><defs><clipPath id="clip0"><rect x="4849" y="5429" width="8555" height="499"/></clipPath></defs><g clip-path="url(#clip0)" transform="translate(-4849 -5429)"><path d="M4849 5512.17C4849 5466.24 4886.24 5429 4932.17 5429L6676.83 5429C6722.76 5429 6760 5466.24 6760 5512.17L6760 5844.83C6760 5890.76 6722.76 5928 6676.83 5928L4932.17 5928C4886.24 5928 4849 5890.76 4849 5844.83Z" fill="#404040" fill-rule="evenodd"/><path d="M5210.66 5796.47 5368.34 5796.47 5366.64 5804.87C5362.64 5814.35 5353.25 5821 5342.31 5821L5236.69 5821C5225.75 5821 5216.36 5814.35 5212.36 5804.87ZM5206.5 5536 5372.5 5536C5395.42 5536 5414 5554.58 5414 5577.5L5414 5743.52C5414 5766.44 5395.42 5785.02 5372.5 5785.02L5206.5 5785.02C5183.58 5785.02 5165 5766.44 5165 5743.52L5165 5577.5C5165 5554.58 5183.58 5536 5206.5 5536Z" fill="#CF6679" fill-rule="evenodd"/><text fill="#FFFFFF" font-family="Bahnschrift SemiBold,Bahnschrift SemiBold_MSFontService,sans-serif" font-weight="600" font-size="202" transform="matrix(1 0 0 1 5539.52 5756)">Available</text><path d="M6980 5512.17C6980 5466.24 7017.24 5429 7063.17 5429L8807.83 5429C8853.76 5429 8891 5466.24 8891 5512.17L8891 5844.83C8891 5890.76 8853.76 5928 8807.83 5928L7063.17 5928C7017.24 5928 6980 5890.76 6980 5844.83Z" fill="#404040" fill-rule="evenodd"/><path d="M7377.66 5796.47 7535.34 5796.47 7533.64 5804.87C7529.64 5814.35 7520.25 5821 7509.31 5821L7403.69 5821C7392.75 5821 7383.36 5814.35 7379.36 5804.87ZM7373.5 5536 7539.5 5536C7562.42 5536 7581 5554.58 7581 5577.5L7581 5743.52C7581 5766.44 7562.42 5785.02 7539.5 5785.02L7373.5 5785.02C7350.58 5785.02 7332 5766.44 7332 5743.52L7332 5577.5C7332 5554.58 7350.58 5536 7373.5 5536Z" fill="#03DAC6" fill-rule="evenodd"/><text fill="#FFFFFF" font-family="Bahnschrift SemiBold,Bahnschrift SemiBold_MSFontService,sans-serif" font-weight="600" font-size="202" transform="matrix(1 0 0 1 7706.79 5756)">Selected</text><path d="M9110 5512.17C9110 5466.24 9147.24 5429 9193.17 5429L10938.8 5429C10984.8 5429 11022 5466.24 11022 5512.17L11022 5844.83C11022 5890.76 10984.8 5928 10938.8 5928L9193.17 5928C9147.24 5928 9110 5890.76 9110 5844.83Z" fill="#404040" fill-rule="evenodd"/><path d="M9472.66 5796.47 9630.34 5796.47 9628.64 5804.87C9624.63 5814.35 9615.25 5821 9604.31 5821L9498.69 5821C9487.75 5821 9478.36 5814.35 9474.36 5804.87ZM9468.5 5536 9634.5 5536C9657.42 5536 9676 5554.58 9676 5577.5L9676 5743.52C9676 5766.44 9657.42 5785.02 9634.5 5785.02L9468.5 5785.02C9445.58 5785.02 9427 5766.44 9427 5743.52L9427 5577.5C9427 5554.58 9445.58 5536 9468.5 5536Z" fill="#E59E1A" fill-rule="evenodd"/><text fill="#FFFFFF" font-family="Bahnschrift SemiBold,Bahnschrift SemiBold_MSFontService,sans-serif" font-weight="600" font-size="202" transform="matrix(1 0 0 1 9801.08 5756)">Reserved</text><path d="M11241 5512.17C11241 5466.24 11278.2 5429 11324.2 5429L13320.8 5429C13366.8 5429 13404 5466.24 13404 5512.17L13404 5844.83C13404 5890.76 13366.8 5928 13320.8 5928L11324.2 5928C11278.2 5928 11241 5890.76 11241 5844.83Z" fill="#404040" fill-rule="evenodd"/><path d="M11630.7 5796.47 11788.3 5796.47 11786.6 5804.87C11782.6 5814.35 11773.2 5821 11762.3 5821L11656.7 5821C11645.7 5821 11636.4 5814.35 11632.4 5804.87ZM11626.5 5536 11792.5 5536C11815.4 5536 11834 5554.58 11834 5577.5L11834 5743.52C11834 5766.44 11815.4 5785.02 11792.5 5785.02L11626.5 5785.02C11603.6 5785.02 11585 5766.44 11585 5743.52L11585 5577.5C11585 5554.58 11603.6 5536 11626.5 5536Z" fill-rule="evenodd"/><text fill="#FFFFFF" font-family="Bahnschrift SemiBold,Bahnschrift SemiBold_MSFontService,sans-serif" font-weight="600" font-size="202" transform="matrix(1 0 0 1 11959.4 5756)">Unavailabl<tspan font-size="202" x="944.167" y="0">e</tspan></text></g></svg>